<?xml version="1.0"?>
<svg width="154" height="157" xmlns="http://www.w3.org/2000/svg" xmlns:svg="http://www.w3.org/2000/svg" clip-rule="evenodd" fill-rule="evenodd" stroke-linejoin="round" version="1.1" xml:space="preserve">
 <g class="layer" display="inline">
  <title>Layer 1</title>
  <g id="svg_1" transform="translate(2.37252 2.87248) scale(1.06463 1.06463) translate(-2.37252 -2.87248) translate(-1 0) matrix(1.37255 0 0 1.37255 -32.6863 -35.2451)">
   <g id="svg_2" transform="matrix(1.14129,0,0,1.13636,-10.6626,5.77273)">
    <path d="m33,63.98c0,24.29 19.63,44.02 43.81,44.02l0,-1.83c-23.2,0 -41.98,-18.89 -41.98,-42.19c0,-23.26 18.78,-42.24 41.98,-42.24c23.16,0 42.02,18.98 42.02,42.24c0,23.3 -18.86,42.19 -42.02,42.19l0,1.83c24.14,0 43.81,-19.73 43.81,-44.02c0,-24.24 -19.67,-43.98 -43.81,-43.98c-24.18,0 -43.81,19.74 -43.81,43.98z" fill="rgb(0,96,151)" id="svg_3"/>
   </g>
   <g id="svg_4" transform="matrix(1.14129,0,0,1.13636,-10.6626,5.77273)">
    <path d="m45.16,63.98c0,17.55 14.17,31.83 31.65,31.83l0,-1.2c-16.81,0 -30.44,-13.71 -30.44,-30.63c0,-16.88 13.63,-30.59 30.44,-30.59c16.81,0 30.44,13.71 30.44,30.59c0,16.92 -13.63,30.63 -30.44,30.63l0,1.2c17.44,0 31.65,-14.28 31.65,-31.83c0,-17.5 -14.21,-31.79 -31.65,-31.79c-17.48,0 -31.65,14.29 -31.65,31.79z" fill="rgb(0,96,151)" id="svg_5"/>
   </g>
   <g id="svg_6" transform="matrix(1.14129,0,0,1.13636,-10.6626,5.77273)">
    <path d="m66.48,38.93c-0.09,0.36 -0.22,0.72 -0.49,1.16c-0.36,0.36 -0.63,0.63 -0.98,0.89l0.35,0.8c0.63,-0.44 1.03,-0.93 1.39,-1.42l1.52,3.34l1.25,-0.57l-1.96,-4.6l-1.08,0.4z" fill="rgb(0,96,151)" id="svg_7"/>
   </g>
   <g id="svg_8" transform="matrix(1.14129,0,0,1.13636,-10.6626,5.77273)">
    <path d="m73.05,41.43l0,0.85c-0.49,0.04 -0.85,0 -1.11,-0.13c-0.45,-0.18 -0.63,-0.46 -0.85,-0.85l1.38,-0.32c0.09,0.23 0.18,0.32 0.32,0.36c0.04,0.09 0.13,0.09 0.26,0.09zm0,-4.33l0,0.76c-0.09,0 -0.13,0 -0.22,0.09c-0.27,0 -0.49,0.13 -0.63,0.27c-0.13,0.13 -0.22,0.44 -0.13,0.71c0,0.36 0.13,0.58 0.36,0.72c0.13,0.09 0.4,0.12 0.62,0.09l0,0.75c-0.62,0.09 -1.11,0 -1.6,-0.26c-0.45,-0.23 -0.72,-0.58 -0.81,-1.08c-0.04,-0.49 0.09,-0.93 0.49,-1.34c0.36,-0.36 0.94,-0.57 1.66,-0.71l0.26,0zm1.62,0.35c-0.41,-0.3 -0.99,-0.44 -1.62,-0.35l0,0.76c0.14,0 0.36,0.09 0.59,0.22c0.17,0.14 0.35,0.36 0.4,0.63c0,0.31 -0.05,0.49 -0.23,0.72c-0.13,0.13 -0.4,0.31 -0.62,0.31l-0.14,0l0,0.75c0.5,-0.04 0.94,-0.26 1.26,-0.63c0,0.59 -0.05,0.99 -0.18,1.21c-0.22,0.23 -0.45,0.36 -0.72,0.36c-0.13,0.05 -0.27,0.05 -0.36,0l0,0.85l0.36,0c0.76,-0.13 1.43,-0.5 1.84,-0.94c0.49,-0.49 0.62,-1.21 0.49,-2.14c-0.14,-0.85 -0.49,-1.47 -1.07,-1.75z" fill="rgb(0,96,151)" id="svg_9"/>
   </g>
   <g id="svg_10" transform="matrix(1.14129,0,0,1.13636,-10.6626,5.77273)">
    <path d="m79.4,36.97l0,0.76c-0.13,0.08 -0.18,0.08 -0.26,0.08c-0.14,0.05 -0.28,0.18 -0.36,0.36c-0.14,0.27 -0.23,0.72 -0.27,1.26c-0.09,0.57 -0.09,1.02 0,1.2c0.04,0.22 0.13,0.35 0.27,0.49c0.13,0.09 0.26,0.18 0.44,0.18l0.18,0l0,0.76l-0.26,0c-0.72,-0.09 -1.26,-0.28 -1.7,-0.76c-0.36,-0.36 -0.59,-1.07 -0.41,-2.1c0.05,-0.89 0.41,-1.52 0.9,-1.88c0.45,-0.31 0.85,-0.44 1.47,-0.35zm0.31,0l-0.31,0l0,0.76c0.09,0 0.14,0 0.23,0.08c0.13,0 0.26,0 0.44,0.14c0.14,0.04 0.18,0.22 0.27,0.4c0.05,0.22 0.05,0.71 0,1.3c-0.09,0.58 -0.13,0.98 -0.27,1.2c-0.09,0.22 -0.22,0.36 -0.36,0.36c-0.08,0.09 -0.22,0.09 -0.31,0.09l0,0.76c0.58,0.09 1.07,-0.09 1.48,-0.28c0.53,-0.35 0.85,-1.06 0.94,-2.01c0.13,-0.88 0,-1.6 -0.49,-2.09c-0.36,-0.36 -0.94,-0.67 -1.62,-0.71z" fill="rgb(0,96,151)" id="svg_11"/>
   </g>
   <g id="svg_12" transform="matrix(1.14129,0,0,1.13636,-10.6626,5.77273)">
    <path d="m84.01,37.81l-0.36,0.76l3.04,1.29c-0.85,0.27 -1.57,0.63 -2.19,1.12c-0.62,0.59 -1.07,1.17 -1.34,1.79l1.29,0.49c0.14,-0.4 0.41,-0.76 0.81,-1.29c0.44,-0.4 0.94,-0.76 1.52,-1.12c0.53,-0.27 1.12,-0.49 1.52,-0.62l0.31,-0.67l-4.6,-1.75z" fill="rgb(0,96,151)" id="svg_13"/>
   </g>
   <g id="svg_14" transform="matrix(1.14129,0,0,1.13636,-10.6626,5.77273)">
    <path d="m51.28,39.2c-0.35,-0.4 -1.2,-1.25 -2.1,-1.87c-0.8,-0.68 -1.65,-1.07 -2.14,-0.72c-0.49,0.36 -0.36,0.54 -0.4,0.98c-0.14,0.27 -0.36,0.49 -0.59,0.72c-0.27,0.22 -0.89,0.62 -1.2,1.07c-0.05,0.27 -0.5,0.13 -0.54,0.36c-0.09,0.17 -0.22,0.35 -0.14,0.53c0.28,0.94 2.24,2.86 2.24,2.86c0,0 0.94,0.94 0.94,0.85c0.63,0.71 1.34,1.29 1.52,1.43c0.36,0.04 0.8,0 0.71,-0.14c-0.35,-0.67 -1.34,-1.29 -1.74,-1.87c-0.58,-0.76 -1.2,-1.34 -1.79,-2.06c-0.13,-0.13 -0.27,-0.4 -0.4,-0.62c-0.09,-0.09 -0.09,-0.27 0,-0.49c0.05,-0.14 0.27,-0.37 0.49,-0.67c0.27,-0.5 0.72,-0.99 0.9,-1.48c0.18,-0.13 0.44,-0.35 0.44,-0.35c0.23,-0.23 0.63,-0.14 0.86,-0.05c0.26,0.05 1.07,0.76 2.05,1.75c0.67,0.66 0.85,0.57 1.03,1.33c0.09,0.31 -0.27,0.22 -0.27,0.36c-0.13,0.36 -0.13,0.66 0.58,0.85c0.14,0.09 0.4,0.22 0.54,0.09c0.09,-0.09 0,-0.23 -0.05,-0.49c-0.31,-0.85 -0.13,-1.21 -0.94,-2.37z" fill="rgb(0,96,151)" id="svg_15"/>
   </g>
   <g id="svg_16" transform="matrix(1.14129,0,0,1.13636,-10.6626,5.77273)">
    <path d="m47.89,39.91c0,-0.17 -0.14,-0.4 -0.36,-0.48c-0.31,-0.05 -0.85,0.7 -0.76,0.84c0,0.22 0.09,0.45 0.22,0.36c0.14,0 0.99,-0.36 0.9,-0.72z" fill="rgb(0,96,151)" id="svg_17"/>
   </g>
   <g id="svg_18" transform="matrix(1.14129,0,0,1.13636,-10.6626,5.77273)">
    <path d="m49.32,40.58c-0.36,0.05 -0.76,0.14 -0.85,0.14c-0.27,0.35 -0.36,0.58 -0.76,0.97c0.04,0 -0.09,0.37 0.04,0.5c0.09,0.22 0.32,0.36 0.59,0.49c0.22,0.09 0.75,0.22 0.98,-0.36c0.09,-0.26 -0.27,-0.4 -0.45,-0.49l0,-0.14l0.22,0c0,-0.04 0.49,0.14 0.63,0.14c0.18,-0.35 0.45,-0.85 0.18,-1.25c-0.18,-0.22 -0.32,-0.09 -0.58,0z" fill="rgb(0,96,151)" id="svg_19"/>
   </g>
   <g id="svg_20" transform="matrix(1.14129,0,0,1.13636,-10.6626,5.77273)">
    <path d="m64.2,26.43c0.09,-0.05 0.09,-0.05 0.19,-0.13c-0.32,-0.36 -0.72,-0.99 -0.85,-0.94c-0.1,0.09 -0.14,0.09 -0.23,0.31c-0.13,0.23 -0.09,0.4 0.36,0.71c0.22,0.05 0.35,0.05 0.53,0.05z" fill="rgb(0,96,151)" id="svg_21"/>
   </g>
   <g id="svg_22" transform="matrix(1.14129,0,0,1.13636,-10.6626,5.77273)">
    <path d="m67.42,26.91c0.05,0.1 0.14,0.23 0.14,0.37c-0.09,0.31 -0.23,0.44 -0.32,0.58c-0.13,0.22 -0.04,0.49 0.09,0.58c0.5,0.13 0.58,-0.67 0.58,-1.34c0,-0.31 -0.08,-0.58 -0.08,-0.8c0.08,-0.23 0.48,-0.4 0.58,-0.36c0.04,0.22 0.13,0.58 0.35,0.94c0.14,0.35 0.5,0.71 0.63,0.76c0.63,0.22 0.36,-0.27 0.36,-0.73c0,-0.03 -0.09,-0.03 -0.14,-0.03c-0.18,0 -0.31,0.03 -0.45,-0.09c-0.04,-0.05 -0.49,-0.98 -0.49,-1.12c0.09,-0.13 0.45,-0.31 0.49,-0.49c0.1,-0.18 0,-0.45 -0.04,-0.45c-0.18,0.09 -1.16,1.21 -1.29,1.34c-0.14,0.09 -0.27,0.09 -0.36,0c-0.05,-0.05 -0.14,-0.53 0.62,-1.56c0.22,-0.36 0.18,-0.36 0,-0.49c-0.13,-0.05 -0.31,0.13 -0.53,0.13c-0.23,0 -0.36,-0.04 -0.36,-0.13c-0.09,-0.13 0,-0.36 -0.09,-0.49c-0.14,-0.36 -0.72,-0.14 -0.98,0.22c-0.27,0.36 -1.12,1.96 -0.77,2.27c0.36,0.18 0.72,-0.57 1.03,-0.93c0.36,-0.36 0.72,-0.36 0.81,-0.36c0.36,0 -0.45,1.21 -0.14,2.15c0,0.22 -0.35,0.49 -0.58,0.35c0,0 -0.35,-0.58 -0.62,-0.71c-0.14,0 -0.36,0.58 -0.14,0.85c0.14,0.35 0.85,0.22 -0.22,1.65c-0.27,0.26 -0.27,0.67 -0.27,0.98c0,0.4 0.13,0.76 0.4,0.76c0.36,0.09 0.59,-0.36 0.63,-0.49c0.13,-0.13 0.36,-0.71 0.45,-1.34c0.04,-0.44 -0.09,-0.85 0.04,-1.21c0.18,-0.27 0.36,-0.49 0.67,-0.81z" fill="rgb(0,96,151)" id="svg_23"/>
   </g>
   <g id="svg_24" transform="matrix(1.14129,0,0,1.13636,-10.6626,5.77273)">
    <path d="m63.93,27.99c0.36,-0.49 0.23,-0.89 -0.35,-1.25c-0.18,-0.09 -0.04,0.4 -0.04,0.76c0.04,0.09 0,0.49 0,0.63c-0.1,0.17 0,0.67 0.39,-0.14z" fill="rgb(0,96,151)" id="svg_25"/>
   </g>
   <g id="svg_26" transform="matrix(1.14129,0,0,1.13636,-10.6626,5.77273)">
    <path d="m64.65,31.61l0,-0.98c-0.09,-0.23 -0.49,-0.76 -0.85,-1.83c-0.09,-0.23 -0.36,-0.23 -0.36,0c0,0.13 0.45,1.47 0.49,2.32c0.09,0.72 0.14,1.43 0.23,2.14c0.04,0.4 0.72,1.21 0.85,1.12c0.13,-0.05 0.22,-0.18 0.05,-0.85c-0.14,-0.62 -0.28,-1.25 -0.41,-1.92z" fill="rgb(0,96,151)" id="svg_27"/>
   </g>
   <g id="svg_28" transform="matrix(1.14129,0,0,1.13636,-10.6626,5.77273)">
    <path d="m72.43,25.94c-0.09,-0.04 -0.23,0.08 -0.36,0.08c-0.58,0.05 -1.07,0.14 -1.47,0.05c-0.14,0 -0.32,-0.05 -0.32,-0.17c-0.04,-0.09 0,-0.23 0,-0.45c0,-0.14 -0.04,-0.36 -0.17,-0.36c-0.23,0 -0.45,0.22 -0.5,0.36c-0.18,0.13 -0.22,0.22 -0.22,0.62c-0.09,0.23 -0.09,0.36 0.04,0.45c0.18,0.13 0.54,0.13 0.85,0.13c0.67,0.09 1.43,0.23 1.7,0.09c0.31,-0.09 0.58,-0.31 0.67,-0.36c0.05,-0.18 0.05,-0.36 -0.22,-0.44z" fill="rgb(0,96,151)" id="svg_29"/>
   </g>
   <g id="svg_30" transform="matrix(1.14129,0,0,1.13636,-10.6626,5.77273)">
    <path d="m70.11,27.95c-0.23,-0.09 -0.36,0.04 -0.59,0.27c-0.22,0.22 -0.09,1.11 -0.36,1.47c0,-0.04 -0.13,-0.13 -0.22,-0.36c-0.04,-0.13 -0.04,-0.31 -0.27,-0.4c-0.13,-0.09 -0.13,0.14 -0.26,0.27c-0.23,0.31 -0.36,0.49 -0.45,0.57c-0.36,0.14 -0.18,-0.57 -0.49,-0.75c-0.14,-0.22 -0.41,0.18 -0.36,0.54c0,0.21 0.13,0.58 0.13,0.79c0.09,0.23 0.09,0.54 0.09,0.63c0.14,0.36 0.23,0.81 0.45,1.08c0.18,0.26 0.49,0.22 0.31,-0.45c0,-0.36 -0.31,-0.98 -0.13,-1.34c0.13,-0.22 0.45,-0.22 0.58,-0.04c0.13,0.17 0.13,0.62 0.27,0.66c0.13,0.23 0.35,-0.04 0.45,-0.26c0.04,-0.05 0.04,-0.36 0.17,-0.72c0,-0.22 0.18,-0.35 0.23,-0.58c0.09,-0.26 0.09,-0.49 0.31,-0.49c0.27,-0.04 0.4,0.32 0.53,0.49c0,0.23 0.1,0.36 0.14,0.67c0.09,0.23 0,0.89 0,1.34c-0.04,0.22 -0.04,0.36 -0.04,0.45c0.13,0.13 0.26,0.18 0.4,-0.81c0.09,-1.07 0.13,-1.07 0,-1.82c0,-0.59 -0.63,-1.17 -0.89,-1.21z" fill="rgb(0,96,151)" id="svg_31"/>
   </g>
   <g id="svg_32" transform="matrix(1.14129,0,0,1.13636,-10.6626,5.77273)">
    <path d="m91.16,26.2c-0.36,0.18 -1.16,0.71 -1.65,1.39c-0.54,0.63 -0.63,0.85 -0.86,0.71c-0.17,0 -0.13,0 -0.49,-0.22c-0.4,-0.13 -0.71,-0.13 -1.02,-0.22c-0.32,-0.09 -0.72,0.22 -0.81,0.44c-0.13,0.27 0,0.27 0.22,0.41c0.14,0.13 0.9,0.36 1.12,0.36c0.14,-0.05 0.36,0 0.32,0.13c0,0.08 -0.94,0.8 -1.3,1.07c-0.36,0.22 -1.07,0.71 -1.21,0.93c-0.27,0.28 0.09,0.5 0.32,0.5c0.13,0 0.48,-0.27 1.02,-0.45c0.63,-0.13 1.08,-0.4 1.34,-0.62c0.32,-0.23 0.85,-0.86 0.99,-0.94c0.18,-0.04 1.34,0.8 1.65,0.8c0.14,-0.09 0.36,-0.26 0.54,-0.44c0.22,-0.18 0.09,-0.4 -0.18,-0.4c-0.31,-0.09 -0.94,-0.32 -1.3,-0.49c-0.35,-0.23 -0.04,-0.36 0.14,-0.59c0.17,-0.22 1.03,-0.98 1.43,-1.43c0.49,-0.4 0.58,-0.71 0.49,-0.76c-0.09,-0.22 -0.4,-0.22 -0.76,-0.18z" fill="rgb(0,96,151)" id="svg_33"/>
   </g>
   <g id="svg_34" transform="matrix(1.14129,0,0,1.13636,-10.6626,5.77273)">
    <path d="m89.46,31.25c-0.13,0 -0.31,0.36 -0.45,0.54c-0.04,0.13 0.09,0.4 0.09,0.67c0.05,0.31 0.41,0.93 0.63,1.07c0.13,0.09 0.27,-0.14 0.58,-0.54c0.27,-0.44 0.27,-0.44 -0.09,-0.93c-0.27,-0.45 -0.49,-0.81 -0.76,-0.81z" fill="rgb(0,96,151)" id="svg_35"/>
   </g>
   <g id="svg_36" transform="matrix(1.14129,0,0,1.13636,-10.6626,5.77273)">
    <path d="m110.92,39.74c-0.14,-0.31 -1.03,-0.59 -1.25,-0.72c-0.36,-0.13 -0.09,-0.36 -0.09,-0.45c-0.05,-0.13 -0.36,-0.04 -0.49,-0.22c-0.14,-0.13 -0.14,-0.36 -0.05,-0.4c0,-0.09 0.05,-0.14 -0.09,-0.27c-0.13,-0.18 -0.13,0 -0.58,0c-0.4,0 -0.4,0.05 -0.4,0.13c0,0.14 0,0.27 -0.23,0.36c-0.26,0.05 -0.49,0.14 -0.62,0.36c-0.23,0.27 -0.36,0.36 -0.36,0.4c0,0.09 0.13,0.13 0.23,0.13c0.13,0 0.62,-0.26 0.84,-0.35c0.14,-0.05 0.63,-0.18 0.72,-0.14c0.13,0.09 0.13,0.32 0.04,0.32c-0.04,0.04 -0.13,0.04 -0.26,0c-0.23,0 -0.81,0.17 -0.99,0.31c-0.22,0.18 -0.31,0.36 -0.18,0.45c0.18,0.21 1.39,0.21 1.66,0.12c0.04,0 0.13,-0.34 0.49,-0.34c0.22,0 0.49,0.22 0.63,0.31c0.13,0.12 0.26,0.12 0.22,0.26c0,0.13 -0.22,0.13 -0.45,0.23c-0.13,0 -0.18,-0.1 -0.18,-0.23c0,-0.14 -0.09,-0.23 -0.31,-0.14c-0.18,0 -0.49,0.23 -0.76,0.27c-0.36,0.1 -1.07,0.14 -1.21,0.14c-0.13,0 -0.84,-1.07 -1.07,-1.21c-0.13,-0.17 -0.04,-0.26 -0.04,-0.4c0,-0.09 1.34,-0.85 1.74,-1.07c0.49,-0.23 0.58,-0.44 0.58,-0.62c-0.09,-0.32 -0.58,-0.18 -0.85,0.04c-0.27,0.14 -0.94,0.67 -1.07,0.85c-0.18,0.13 -0.4,0.45 -0.54,0.36c-0.22,-0.05 -0.22,-0.49 -0.31,-0.63c-0.05,-0.14 -0.18,-0.14 -0.41,-0.14c-0.31,0.05 -0.44,0.36 -1.11,0.72c-0.32,0.18 -0.45,0.18 -0.58,0.36c-0.09,0.04 -0.09,0.27 0,0.36c0.13,0.13 0.49,0.04 0.71,0c0.18,0 0.36,-0.18 0.49,-0.23c0.05,0 0.49,0.49 0.76,0.72c0.27,0.18 1.21,1.34 1.34,1.38c0.5,0.31 1.08,1.16 1.08,1.21c0.04,0.09 0.13,0.22 0,0.31c-0.23,0.13 -0.23,0.13 -0.23,0.27c0.09,0.09 0.63,0.49 0.81,0.58c0.18,0 0.67,0 0.76,-0.23c0.13,-0.04 -0.09,-0.22 -0.14,-0.35c-0.13,-0.14 -0.13,-0.49 -0.35,-0.63c-0.27,-0.14 -1.21,-1.29 -1.21,-1.29c0,-0.05 0.63,-0.18 0.76,-0.14c0.18,0.09 0.18,0.36 0.45,0.45c0.13,0 0.13,-0.09 0.27,-0.09c0.22,-0.09 0.22,0 0.93,0c0.72,-0.09 0.76,-0.13 0.9,-0.4c0.13,-0.18 0.22,-0.45 0,-0.71z" fill="rgb(0,96,151)" id="svg_37"/>
   </g>
   <g id="svg_38" transform="matrix(1.14129,0,0,1.13636,-10.6626,5.77273)">
    <path d="m106.18,41.43c-0.04,-0.13 -0.9,-1.07 -1.12,-1.2c-0.22,-0.1 -0.36,-0.1 -0.49,0c-0.09,0.13 -0.27,0.35 -0.36,0.4c-0.04,0.09 0.23,0.31 0.36,0.35c0.13,0.14 0.36,0.45 0.49,0.5c0.22,0.09 0.49,0 0.45,0.21c0,0.14 -0.45,0.5 -0.67,0.46c-0.4,0 -0.76,-0.67 -1.21,-1.03c-0.13,-0.14 -0.4,-0.14 -0.53,-0.14c-0.14,-0.13 -0.32,0 -0.32,0.09c0,0.14 0.18,0.27 0.18,0.41c0.05,0.21 0.18,0.3 0.4,0.44c0.36,0.23 0.72,0.58 0.85,0.72c0.09,0.13 0.23,0.26 -0.22,0.49c-0.36,0.22 -0.85,0.35 -1.25,0.22c-0.45,-0.22 -0.72,-0.49 -0.76,-0.8c-0.09,-0.23 -0.23,0.09 -0.32,0.31c-0.04,0.18 -0.27,0.49 -0.22,0.62c0.09,0.14 0.09,0.22 0.45,0.36c0.36,0.05 1.21,0.27 1.56,0.23c0.76,-0.09 1.03,-0.67 1.21,-0.67c0.04,0 0.18,0.22 0.31,0.3c0.09,0.05 0.31,0.5 0.58,0.5c0.23,0 0.5,-0.09 0.36,-0.58c-0.09,-0.22 -0.27,-0.22 -0.58,-0.63c0,-0.13 0.18,-0.44 0.22,-0.44c0.09,0.09 0.99,0.09 1.12,0c0.09,-0.05 0.22,-0.49 0.18,-0.58c0,-0.14 -0.58,-0.49 -0.67,-0.54z" fill="rgb(0,96,151)" id="svg_39"/>
   </g>
   <g id="svg_40" transform="matrix(1.14129,0,0,1.13636,-10.6626,5.77273)">
    <path d="m58.62,62.95c-0.09,0.14 -0.18,0.22 -0.27,0.31c-0.72,1.16 -1.7,5.05 -1.39,6.83c0.32,1.66 0.45,2.73 1.66,4.2l0,-11.34zm0,-15.62l0,3.61c-0.72,0.67 -1.48,0.8 -1.17,1.25c0.18,0.36 0.63,0.31 1.17,0.49l0,2.45c-0.23,-0.08 -0.49,-0.08 -0.76,-0.08c-1.48,0.08 -2.33,0.85 -2.33,1.47c0,0.67 0.72,8.12 0.49,9.38c-0.22,1.29 -1.83,5.49 -1.34,7.54c0.58,1.97 2.64,3.84 3.13,3.84c0.18,-0.04 0.49,-0.18 0.81,-0.31l0,7.41c-1.66,-1.82 -4.88,-5.58 -5.91,-7.81c-1.43,-3.08 -0.49,-4.96 -0.08,-8.09c0.44,-3.12 0.31,-8.17 -0.14,-10.93c-0.49,-3.8 0.63,-4.06 1.84,-5.27c1.11,-1.11 2.32,-1.34 2.63,-2.99c0.14,-1.21 -0.71,-1.75 -0.8,-2.41c-0.09,-0.54 1.56,-0.27 2.46,0.45zm0,3.61l0,-3.61c0.17,0.13 0.35,0.31 0.44,0.49c0.58,0.98 0.63,2.05 -0.22,2.89c-0.05,0.1 -0.14,0.19 -0.22,0.23zm0,4.19c0.8,0.19 1.34,0.77 1.74,0.9l0,0.09l0,-2.18c-0.09,-0.19 -0.18,-0.23 -0.31,-0.36c-0.5,-0.58 -1.03,-0.81 -1.43,-0.9l0,2.45zm0,19.16c0.08,0.14 0.17,0.23 0.31,0.36c0.4,0.4 0.98,0.71 1.43,0.98l0,-3.71c-0.09,-0.13 -0.18,-0.27 -0.18,-0.31c-0.49,-0.89 -1.03,-2.58 -0.67,-4.55c0.27,-1.88 0.13,-2.51 0.76,-2.86l0.09,-0.05l0,-2.98c-0.72,0.71 -1.39,1.33 -1.74,1.78l0,11.34zm0,10.09c0.62,0.72 1.02,1.12 1.02,1.12c0,0 -0.22,0.71 -0.49,1.29c-0.22,0.63 0.36,0.76 0.68,0.76c0.08,0 0.35,-0.27 0.53,-0.62l0,-6.34c-0.67,-0.41 -1.21,-1.12 -1.43,-1.7c-0.14,-0.53 -0.72,-0.9 0.22,-1.11c0.18,0 0.68,0 1.21,0.04l0,-1.21c-0.31,0.09 -0.67,0.09 -0.94,0.09c-0.32,0.05 -0.58,0.14 -0.8,0.27l0,7.41zm2.05,-3.61l0,5.49c-0.09,0.13 -0.22,0.4 -0.31,0.58l0,-6.25c0.09,0.09 0.22,0.13 0.31,0.18zm0,-4.16l0,1.25c-0.09,0 -0.22,0 -0.31,-0.04l0,-1.21l0.31,0zm0,-4.15l0,3.35l-0.31,-0.18l0,-3.71c0.09,0.18 0.22,0.36 0.31,0.54zm0,-11.61l0,3.08c-0.09,0.05 -0.22,0.14 -0.31,0.22l0,-2.98l0.31,-0.32zm0,-6.43l0,1.7c-0.09,0.04 -0.18,0 -0.31,0l0,-2.18c0.13,0.13 0.22,0.31 0.31,0.48zm4.56,34.16c0.76,0.31 1.48,0.53 2.01,0.67l0,-4.37c-0.4,-0.1 -0.76,-0.32 -0.49,-0.99c0.09,-0.31 0.31,-0.67 0.49,-1.03l0,-2.18c-0.53,0.8 -1.38,1.78 -2.01,2.18l0,5.72zm2.01,-31.25c-0.76,0 -1.61,0 -2.01,-0.09l0,1.38c0.63,-0.23 1.48,-0.44 2.01,-0.44l0,-0.85zm-2.01,14.06c0.49,-1.88 1.16,-3.93 1.48,-5.04c0.04,-0.14 0.35,-0.1 0.53,-0.23l0,-1.34c-0.04,0 -0.13,-0.09 -0.04,-0.23c0,-0.04 0.04,-0.22 0.04,-0.35l0,-2.81l0,0.04c-0.18,0.59 -0.4,1.29 -0.67,2.01c-0.35,1.25 0.05,1.61 -0.98,1.84l-0.36,0l0,1.07c0.27,0 0.49,0 0.4,0.04c-0.04,0.22 -0.13,0.94 -0.4,1.78l0,3.22zm2.01,3.62c-0.49,-0.09 -1.38,0 -2.01,0l0,1.07c0.36,0.04 0.67,0.04 0.9,0.13c0.49,0 0.71,0.04 1.11,0.85l0,0.09l0,-2.14zm0,14.24l0,-4.37c0.23,0.04 0.54,0.04 0.72,0.04c0.13,0 0.31,0.09 0.45,0.09l0,4.41c-0.32,0 -0.58,0 -0.85,-0.08c-0.09,0 -0.23,-0.09 -0.32,-0.09zm0,-25.05l0,-2.81c0.54,-1.43 0.85,-2.46 0.85,-3.08c0,-0.13 -0.26,-0.23 -0.85,-0.13l0,-0.85l1.17,0l0,3.52c-0.36,0.94 -0.81,2.24 -1.17,3.35zm0,1.92c0.09,0 0.23,0 0.32,-0.14c0.04,-0.13 0.13,-0.62 0.04,-0.93c0,-0.22 -0.18,-0.22 -0.36,-0.27l0,1.34zm1.17,9.82l0,5.81c-0.36,0.22 -0.81,0.62 -1.17,1.11l0,-2.18c0.36,-0.45 0.59,-0.76 0.59,-0.94c0.13,-0.49 -0.23,-1.75 -0.59,-2.59l0,-2.14c0.09,0 0.18,0.04 0.23,0.04c0.44,0.18 0.62,0.31 0.94,0.89zm0,13.48c0.53,0.05 1.11,0.14 1.56,0.14l0,-4.55c-0.36,0.22 -0.94,0.09 -1.56,0l0,4.41zm0,-28.57c0.26,-0.98 0.49,-1.6 0.53,-1.74c0.09,-0.23 0.67,-0.18 1.03,-0.18l0,-1.38c-0.22,-0.14 -0.85,-0.22 -1.56,-0.22l0,3.52zm1.56,17.77c-0.81,0.09 -1.07,0.09 -1.39,-1.47c-0.04,-0.58 -0.13,-0.94 -0.17,-1.21l0,5.81c0.04,-0.09 0.17,-0.09 0.17,-0.09c0.32,0 0.68,1.16 0.81,1.69c0.13,0.31 0.4,0.72 0.58,1.08l0,0.09l0,-3.75c-0.09,-0.23 -0.18,-0.36 0,-0.59l0,-1.56zm0,-15.04c-0.31,0.71 -0.67,1.43 -0.81,1.78c-0.71,1.92 -0.85,3.75 -0.4,5.18c0.4,1.34 0.85,2.28 1.21,2.95l0,0.09l0,-10zm0,25.98l0,-4.55c0.14,-0.13 0.14,-0.27 0,-0.49l0,-3.71c0.05,0.09 0.14,0.22 0.18,0.44c0.22,0.63 0.49,1.07 0.85,2.28c0.31,0.76 0.49,1.21 0.71,1.39l0,6.96c-0.4,0.32 -0.98,-0.22 -0.98,-0.22c0,0 0.13,-0.41 0.22,-0.76c0.14,-0.23 0.14,-0.49 0.27,-0.76c0.14,-0.44 -0.36,-0.44 -1.25,-0.58zm0,-30.63c0.05,0 0.05,0 0.14,-0.05c0.35,-0.12 0.49,-0.93 -0.14,-1.33l0,1.38zm1.74,1.38l0,3.84c-0.49,0.4 -0.62,1.7 -0.71,2.46c-0.22,1.52 0.22,2.64 0.71,3.57l0,10.27c-0.13,-0.04 -0.26,-0.04 -0.4,-0.14c-0.85,-0.39 -0.94,-0.57 -1.29,-0.13l-0.05,0l0,-1.56c0.05,0 0.05,-0.09 0.14,-0.09c0.84,0 1.51,0 1.51,-0.71c0,-0.63 -0.26,-1.88 -0.62,-2.41c-0.27,-0.49 -0.63,-1.03 -1.03,-1.83l0,-10c0.31,-0.81 0.67,-1.56 0.89,-2.02c0.27,-0.62 0.5,-0.84 0.85,-1.25zm0,-6.6l0,1.7c-0.22,-0.23 -0.35,-0.49 -0.26,-1.08c0.04,-0.26 0.13,-0.48 0.26,-0.62zm0,38.17c0,-0.04 0.09,-0.04 0.09,-0.04c0.14,-0.23 0.31,-0.67 0.4,-1.21c0.14,-0.67 0.27,-0.84 0.27,-0.84c0,0 0.94,0.04 2.01,0.12l0,-4.05c-0.17,-0.05 -0.31,-0.14 -0.35,-0.28c-0.45,-0.7 -0.09,-1.65 0.35,-2.85l0,-3.48c-0.44,0.08 -0.57,-1.21 -0.57,-1.92c-0.1,-0.63 -0.27,-0.72 -0.14,-1.7c0,-0.35 0.36,-0.13 0.71,0.13l0,-2.32c-0.71,-0.44 -1.56,-1.16 -2.05,-1.92c-0.23,-0.35 -0.49,-0.8 -0.72,-1.29l0,-0.05l0,10.27c0.63,0.36 0.99,0.67 1.34,0.8c0.45,0.23 0.59,0.54 0.27,1.79c-0.36,1.25 -0.53,2.06 -1.03,2.1c-0.22,0 -0.44,0 -0.58,-0.22l0,6.96zm2.77,-36.92c-0.35,-0.4 -0.57,-0.85 -0.84,-1.02c-0.36,-0.32 -1.44,-0.85 -1.93,-0.23l0,1.7c0.36,0.26 0.94,0.22 1.57,0.44c0.76,0.18 1.03,0.9 0.85,1.25c-0.63,1.08 -1.34,1.78 -2.02,2.63c-0.17,0.28 -0.31,0.45 -0.4,0.58l0,3.84c0.09,-0.08 0.09,-0.17 0.23,-0.17c0.53,-0.13 1.74,1.38 2.54,1.92l0,-2.77c-0.49,-0.9 -1.07,-2.1 -0.57,-3.17c0.08,-0.36 0.26,-0.67 0.57,-1.03l0,-3.97zm2.37,13.88l0,7.95c-0.17,-0.09 -0.35,0 -0.49,0.05c-0.36,0.13 -0.49,0.8 -0.76,2c-0.22,1.25 -0.35,1.21 -0.85,2.91c-0.08,0.27 -0.13,0.62 -0.27,0.93l0,0.05l0,-3.48c0.41,-0.05 0.5,-1.26 0.54,-1.79c0.23,-0.85 0.36,-1.02 -0.04,-1.34c-0.09,-0.04 -0.31,-0.18 -0.5,-0.36l0,-2.32l0,0.05c0.41,0.22 0.77,0.35 1.03,0.35c0.32,0 0.94,-2.9 1.34,-5zm0,-3.7l0,1.25c-0.53,-0.14 -1.52,0 -2.1,-0.27c-0.08,-0.04 -0.13,-0.14 -0.27,-0.22l0,-2.77l0,0.09c0.19,0.4 0.5,0.76 0.63,1.07c0.36,0.49 1.07,0.76 1.74,0.85zm-2.37,24.77l0,-4.05l0,0.09c0.54,0.18 1.52,0.04 2.37,-0.14l0,4.15l-0.13,0c-0.49,0 -1.39,0 -2.24,-0.05zm2.37,-33.88l0,1.16c-0.35,0.14 -0.62,0.27 -0.98,0.49c-0.49,0.36 -0.98,0.76 -1.39,1.25l0,-3.97c0.41,0.67 0.85,1.2 1.12,1.16c0.27,0 0.76,-0.09 1.25,-0.09zm0,33.93c0.72,0 2.29,-0.05 3.72,-0.05l0.04,0l0,-3.83l-0.04,0c-0.68,0.22 -1.08,0.05 -0.86,-0.36c0.14,-0.27 0.54,-0.8 0.86,-0.98l0.04,0l0,-1.79c0,0 -0.04,0 -0.04,0.09c-0.1,0.62 -1.57,1.97 -2.42,2.41c-0.27,0.05 -0.8,0.27 -1.3,0.36l0,4.15zm3.76,-12.63l-0.04,-0.05c-0.86,-1.03 -3.63,-2.59 -3.63,-2.59c-0.09,-0.13 -0.09,-0.26 -0.09,-0.4l0,-0.35c0.09,-1.71 1.3,-5.27 1.53,-6.61c0,-0.23 0.04,-0.49 0.13,-0.94c0.13,-0.31 1.03,0 0.84,-1.21c0,-0.26 -0.21,-0.89 -0.21,-1.03c0.49,-1.55 0.98,-3.3 1.43,-4.55l0.04,-0.09l0,-4.19l-0.04,0c-0.86,0 -1.66,0.09 -2.28,0.35c-0.41,0.18 -0.94,0.32 -1.44,0.36l0,1.16c0.5,-0.14 1.08,-0.31 1.79,-0.58c1.21,-0.36 1.34,0.44 1.34,0.44c0,0 0.14,0.68 -0.58,2.6c-0.71,2.01 -1.25,5.27 -1.74,5.49c-0.22,0.04 -0.49,0.04 -0.81,0l0,1.25c0.23,0 0.32,0.08 0.32,0.22c0,0.14 -0.09,0.99 -0.32,2.06l0,8.12c0.36,0.05 0.72,0.49 1.21,0.67c0.72,0.45 1.21,0.67 1.34,2.15c0.14,1.51 1.07,2.54 1.17,3.21l0.04,0l0,-5.49zm0,-17.82c0.36,-0.98 0.62,-1.78 0.72,-1.92c0.26,-0.49 1.2,-0.75 1.47,-0.84c0.8,-0.05 0.63,-0.5 0.27,-0.9c-0.18,-0.22 -0.98,-0.35 -1.97,-0.44c-0.22,-0.09 -0.36,-0.09 -0.49,-0.09l0,4.19zm3.89,2.28l0,6.34c-0.05,0.49 -0.23,0.98 -0.27,1.38c-0.09,1.07 0,1.88 0.27,2.37l0,9.73c-0.36,0.27 -0.72,0.5 -1.07,0.76c-0.99,0.58 -0.99,1.29 -0.76,2.01c0.09,0.63 1.11,1.12 1.83,1.2l0,5.81c-0.4,0.45 -1.07,0.14 -1.07,0.14c0,-0.5 -0.14,-0.36 0.09,-0.77c0.13,-0.48 0.22,-0.85 0.22,-0.85l-3.13,0l0,-3.83c0.72,-0.27 0.8,-0.27 0.94,-0.94c0.04,-0.49 -0.36,-0.58 -0.72,-0.49c-0.09,0 -0.13,0 -0.22,0.09l0,-7.41c0.13,0.09 0.22,0.22 0.22,0.36c0.36,0.93 0.76,4.19 1.21,4.28c0.4,0.05 1.56,-1.29 1.74,-1.92c0.45,-1.29 -1.34,-2.77 -1.87,-3.7c-0.58,-0.94 -1.44,-4.74 -0.5,-7.87c0.41,-1.51 1.88,-4.55 3.09,-6.69zm0,29.6c0.13,-0.14 0.22,-0.36 0.27,-0.63c0.09,-0.45 0.09,-0.8 0.22,-1.2c0.09,-0.09 0.58,-0.14 1.43,-0.36c0.22,0 0.4,-0.09 0.63,-0.13l0,-4.55c-0.23,0 -0.27,-0.27 -0.27,-0.94c0,-0.49 0.13,-1.08 0.27,-1.56l0,-3.62l-0.09,0.09c-0.18,0.27 -0.32,0.49 -0.54,0.4c-0.22,0 -0.49,-0.36 -0.94,-1.2c-0.36,-0.72 -0.53,-1.61 0.09,-2.28c0.27,-0.27 0.54,-0.4 0.85,-0.4c0.22,-0.09 0.4,0 0.63,0l0,-1.57c-0.23,-0.09 -0.41,-0.09 -0.63,-0.13c-0.49,0 -0.85,-0.23 -1.07,-0.31c-0.27,-0.28 -0.63,-0.54 -0.85,-1.08l0,-0.04l0,9.73c0.45,-0.31 0.76,-0.58 1.12,-0.8c0.22,-0.13 0.66,-0.27 0.8,0c0.05,0.14 0.05,0.36 0,0.72c-0.09,0.13 -0.09,0.22 -0.09,0.26c-0.49,1.3 -0.76,3.71 -1.47,3.79l-0.36,0l0,5.81zm2.55,-32.77c-0.23,0.14 -0.41,0.31 -0.63,0.49c-0.45,0.36 -0.8,0.72 -0.98,1.07c-0.23,0.41 -0.58,0.9 -0.94,1.52l0,6.43l0,-0.09c0.36,-1.65 0.94,-3.26 1.12,-3.62c0.31,-0.49 0.44,-0.22 0.8,0.09c0.13,0.04 0.22,0.18 0.36,0.18c0.04,0 0.18,0.09 0.27,0.14l0,-6.21zm0,-5c-0.23,0 -0.41,0 -0.63,0.09c-0.22,0 -0.36,0.04 -0.49,0.23c-0.94,0.88 -0.36,1.38 0.49,1.69c0.22,0.04 0.4,0.13 0.63,0.13l0,-2.14zm1.7,18.89l0,3.25c-0.5,1.03 -0.72,2.64 -0.94,3.49c-0.14,0.57 -0.36,1.29 -0.54,2.05c-0.09,0.23 -0.13,0.45 -0.22,0.72l0,-3.62c0.09,-0.13 0.13,-0.27 0.22,-0.41c0.04,-0.35 0.14,-0.84 0.27,-1.51c0.27,-0.98 0.09,-1.25 -0.27,-1.34c-0.09,-0.09 -0.13,-0.09 -0.13,-0.09l-0.09,-0.04l0,-1.57l0.22,0c0.4,0 0.85,-0.09 1.12,-0.22c0.13,-0.04 0.22,-0.36 0.36,-0.71zm-1.7,16.56l0,-4.55c0.09,0.04 0.13,0.04 0.22,0.04c0.27,-0.04 0.72,-0.27 1.38,-0.49l0.1,0l0,4.29c-0.59,0.26 -1.08,0.49 -1.48,0.62c-0.09,0 -0.13,0 -0.22,0.09zm1.7,-31.61l0,1.65c-0.23,0.18 -0.36,0.4 -0.5,0.54c-0.49,0.85 -0.8,1.07 -0.62,2.58c0.04,1.12 0.53,1.75 1.12,2.1l0,1.57c-0.5,-0.14 -1.08,-0.62 -1.48,-0.89c-0.09,-0.09 -0.13,-0.18 -0.22,-0.18l0,-6.21c0.09,-0.09 0.13,-0.09 0.22,-0.18c0.4,-0.36 0.98,-0.62 1.48,-0.98zm0,-3.26l0,2.14c-0.27,-0.18 -0.59,-0.31 -0.85,-0.35c-0.14,-0.09 -0.45,-0.09 -0.63,-0.14c-0.09,0 -0.13,0 -0.22,-0.09l0,-2.14l0.22,0c0.4,0.09 0.89,0.32 1.34,0.49c0,0 0.04,0.09 0.14,0.09zm0,-11.43l0,0.58c-0.99,-0.49 -0.99,-0.8 0,-0.58zm0,45.59c0.35,-0.14 0.71,-0.36 1.11,-0.5l0,-4.33c-0.35,0.18 -0.76,0.4 -1.11,0.54l0,4.29zm1.11,-32.95c-0.26,-0.49 -0.71,-0.94 -1.11,-1.21l0,2.14c0.35,0.18 0.71,0.41 0.98,0.54c-0.27,0.17 -0.63,0.36 -0.98,0.58l0,1.65c0.26,-0.35 0.71,-0.72 1.11,-1.07l0,-2.63zm0,17.59c-0.22,-0.05 -0.13,-0.77 0,-1.92l0,-6.44c-0.35,0.05 -0.76,0 -1.11,-0.31l0,1.57c0.13,0.08 0.26,0.18 0.4,0.18c0.31,-0.1 0.67,-0.18 0.71,-0.23l0,0.05c-0.04,0.45 -0.35,2.58 -0.62,3.57c-0.14,0.71 -0.27,2.18 -0.49,3.04l0,3.25c0.13,-0.35 0.26,-0.53 0.49,-0.71c0.22,-0.04 0.4,-0.18 0.62,-0.27l0,-1.78zm0,-29.87c-0.13,0 -0.22,-0.09 -0.35,-0.14c-0.27,-0.09 -0.54,-0.13 -0.76,-0.22l0,0.58c0.22,0.13 0.4,0.18 0.71,0.35c0.14,0.14 0.27,0.19 0.4,0.28l0,-0.85zm-29.19,12.99c0.4,-0.04 0.54,-0.8 0,-1.7l0,1.7zm0,7.81l0,-3.08c1.48,-1.34 3,-2.67 2.91,-2.95c-0.04,-1.2 -0.63,-0.8 -1.34,-1.56c-0.54,-0.8 -0.23,-2.23 1.65,-1.16c0.85,0.49 0.27,1.52 1.12,2.01c0.04,0.05 0.13,0.05 0.22,0.05l0,1.38c-0.18,0.04 -0.31,0.14 -0.49,0.18c-0.94,0.67 -1.34,0.67 -1.92,1.65c-1.07,1.96 0,2.27 0.4,3.26c0.58,1.12 1.21,1.57 2.01,1.57l0,1.07c-0.45,0 -1.07,0.04 -1.43,-0.14c-0.62,-0.36 -1.07,-0.85 -1.97,-2.01c-0.44,-0.53 -0.8,-0.45 -1.16,-0.27zm0,22.33l0,-5.49c0.14,0.04 0.27,0.08 0.45,0.13c0.22,0.05 0.58,-0.72 0.71,-1.43c0.14,-0.71 0.5,-1.2 0.14,-1.43c-0.05,0 -0.63,-0.09 -1.3,-0.18l0,-1.25c0.54,0 0.94,0 0.94,-0.17c0,-0.14 -0.4,-0.36 -0.94,-0.63l0,-3.35c1.08,1.38 2.19,1.97 2.55,1.92c0.45,-0.09 0.71,-2.46 1.34,-3.93c0.22,-0.63 0.49,-1.48 0.67,-2.28l0,3.26c-0.49,1.88 -0.84,3.44 -0.67,3.49c0.09,0.09 0.36,0.09 0.67,0.09l0,1.07c-0.58,-0.09 -1.16,0 -1.3,0.27c-0.04,0.35 0.85,1.56 0.72,2.01c-0.36,0.75 -1.34,-0.09 -1.47,0.35c-0.45,1.34 -0.85,2.68 -0.94,3.04c-0.05,0.57 0.58,0.49 1.07,0.85c0.58,0.26 0.62,0.93 1.47,0.58c0.14,-0.09 0.27,-0.14 0.45,-0.32l0,5.72c-1.83,-0.8 -3.75,-1.92 -4.47,-2.5c0,0 -0.04,0.05 -0.09,0.18zm31.79,-4.73l0,4.73c-0.09,0.09 -0.23,0.18 -0.32,0.22c-0.8,0.54 -1.56,0.94 -2.28,1.3l0,-4.25c1.17,-0.71 2.19,-1.61 2.6,-2zm0,-8.67l0,1.7c-0.09,-0.09 -0.23,-0.13 -0.32,-0.13c-0.62,0 -1.56,0.13 -2.28,0.35l0,-1.78c0.81,0.13 1.97,-0.14 2.6,-0.14zm0,-17.1l0,4.96c-0.27,0.84 -0.54,1.74 -0.81,2.72c-0.09,0.36 0.49,0.71 0.49,1.11c-0.09,1.3 -0.98,1.08 -1.07,1.53c-0.49,1.82 -0.9,3.65 -1.21,4.95l0,-6.39c0.14,-0.09 0.22,-0.09 0.31,-0.09c0.41,-0.22 0.63,-1.69 0.86,-2.67c0.17,-1.03 0.89,-3.12 1.11,-3.8c0.23,-0.53 0.14,-1.6 -0.8,-1.03c-0.4,0.19 -0.9,0.54 -1.48,0.99l0,-2.63c0.36,0.44 0.58,0.75 0.72,1.07c0.62,-0.32 1.11,-0.49 1.34,-0.58c0.18,-0.05 0.36,-0.1 0.54,-0.14zm0,-11.25l0,1.65c-0.81,-0.84 -1.7,-1.65 -2.6,-2.18l0,-0.85c0.85,0.31 1.75,0.8 2.6,1.38zm0,1.65l0,-1.65c1.29,0.94 2.54,2.1 3.62,3.22l0.09,0l0,3.21l-0.09,0c-0.27,-0.49 -0.54,-0.98 -0.99,-1.52c-0.53,-0.71 -1.52,-2.05 -2.63,-3.26zm0,14.56l0,-4.96c0.8,-0.13 1.38,0.09 1.38,0.09c0,0 2.73,0.49 -0.09,1.39c-0.18,0.04 -0.67,1.47 -1.29,3.48zm0,25.54l0,-4.73l0.04,-0.05c0.54,-0.58 1.39,-2.59 1.39,-3.21c0,-0.58 -0.67,-3.08 -1.43,-3.71l0,-1.7c0.13,-0.04 0.22,0 0.31,0c0.49,0.22 1.34,2.9 1.43,3.13c0,0 -0.36,-12.9 0.4,-16.03c0.27,-1.2 0.94,-2.14 1.48,-2.86l0.09,0l0,2.5l-0.09,0c-0.18,0.41 -0.27,0.76 -0.27,0.99c0,0.49 0.09,1.11 0.27,1.07l0.09,0l0,15.98c0,0.05 0,0.05 -0.09,0.05c0,0.13 -0.05,0.3 -0.14,0.44c-0.49,1.25 -1.11,2.05 -1.11,2.05c-0.63,0.99 -0.94,1.79 0.35,0.77c0.36,-0.41 0.63,-0.77 0.9,-1.13c0.09,0 0.09,-0.08 0.09,-0.08l0,3.08l-0.09,0c-0.9,0.98 -2.15,2.36 -3.62,3.44zm8.13,-33.17c-0.53,-0.81 -2.32,-3.09 -4.42,-5.36l0,3.21c1.61,2.64 2.05,4.6 2.05,4.6c0,0 -1.07,0.49 -2.05,1.56l0,2.5c0.35,-0.8 0.98,-1.65 1.43,-2.05c0.76,-0.71 1.11,0 1.03,0.35c-0.05,0.86 -0.72,1.48 -1.21,1.75c-1.21,0.94 -0.85,1.74 -1.21,1.91c-0.04,0 -0.04,0 -0.04,0.1l0,15.98c0.71,-1.92 0.62,-3.08 0.58,-5.41c-0.09,-2.72 -0.23,-5.39 0.04,-4.95c0.36,0.4 1.21,3.89 1.21,5.58c-0.09,3.35 -0.09,4.6 -1.83,6.88l0,3.08c0.35,-0.36 0.71,-0.71 0.98,-1.03c2.32,-2.18 2.91,-5.58 3.31,-6.65c0.35,-1.11 0.09,-2.68 -0.63,-4.69c-0.58,-1.92 -1.34,-4.6 -1.7,-6.25c-0.4,-1.6 -0.53,-2.99 -0.04,-3.7c0.4,-0.67 0.49,-0.77 1.16,-0.41c0.58,0.27 0.85,0.99 0.58,3.89c-0.27,3.08 0.09,3.79 0.94,1.92c0.67,-1.7 0.62,-3.53 0.67,-4.69c0.18,-1.2 0.36,-2.28 0.67,-2.82c0.27,-0.57 -0.49,-3.7 -1.52,-5.3z" fill="rgb(0,96,151)" id="svg_41"/>
   </g>
   <g id="svg_42" transform="matrix(1.14129,0,0,1.13636,-10.6626,5.77273)">
    <path d="m39.62,76.21c-0.14,-0.09 -0.27,-0.13 -0.4,-0.22c-0.72,-0.36 -1.21,-0.98 -1.44,-1.83c-0.17,-0.81 -0.04,-1.56 0.32,-2.28c0.4,-0.71 1.12,-1.2 2.01,-1.43c0.22,-0.09 0.53,-0.14 0.71,-0.14l0.09,0l0,1.08c-0.13,0 -0.27,0.04 -0.49,0.04c-0.98,0.22 -1.65,0.67 -2.05,1.21c-0.36,0.44 -0.36,0.94 -0.27,1.43c0.13,0.58 0.49,0.98 1.03,1.21c0.17,0.08 0.31,0.13 0.44,0.13c0.14,0.09 0.27,0.09 0.49,0.09l0.05,0c0.18,0 0.31,0 0.36,-0.09l0.35,0l0.09,-0.05l0,1.08c-0.44,0 -0.85,-0.09 -1.29,-0.23zm1.29,0.23c0.27,0 0.5,-0.09 0.76,-0.19c0.85,-0.26 1.57,-0.67 2.01,-1.38c0.41,-0.8 0.54,-1.52 0.32,-2.27c-0.18,-0.81 -0.63,-1.34 -1.34,-1.79c-0.14,-0.09 -0.27,-0.13 -0.36,-0.23c-0.05,0 -0.05,0 -0.05,-0.04c-0.13,0 -0.27,-0.09 -0.44,-0.09l0,-0.09c-0.14,0 -0.27,0 -0.4,-0.05l-0.5,0l0,1.08c0.58,-0.13 0.99,-0.13 1.39,-0.09l0,0.09c0.18,0 0.31,0.04 0.45,0.04c0.49,0.22 0.76,0.67 0.93,1.17c0.14,0.58 0.05,1.07 -0.22,1.47c-0.44,0.49 -1.16,0.94 -2.14,1.21c-0.14,0.08 -0.27,0.08 -0.41,0.08l0,1.08z" fill="rgb(0,96,151)" id="svg_43"/>
   </g>
   <g id="svg_44" transform="matrix(1.14129,0,0,1.13636,-10.6626,5.77273)">
    <path d="m37.74,66.35l4.56,-0.37l0.09,0.95c0.09,0.17 0,0.4 -0.09,0.53c-0.05,0.22 -0.14,0.31 -0.32,0.44c-0.08,0.05 -0.31,0.05 -0.57,0.14l0.08,0.23l1.39,-0.23l-0.36,-4.95l-1.38,0l0,0.17c0.27,0 0.49,0 0.62,0.18c0.22,0.05 0.27,0.18 0.36,0.36c0.04,0.13 0.04,0.35 0.13,0.62l0,0.72l-4.6,0.36c-0.36,0 -0.54,0 -0.71,-0.09c-0.14,-0.05 -0.27,-0.27 -0.27,-0.58l0,-0.19l-0.14,0.05l0.14,2.59l0.22,0l0,-0.22c-0.09,-0.22 0,-0.45 0.05,-0.59c0.17,-0.08 0.35,-0.08 0.8,-0.12z" fill="rgb(0,96,151)" id="svg_45"/>
   </g>
   <g id="svg_46" transform="matrix(1.14129,0,0,1.13636,-10.6626,5.77273)">
    <path d="m47.48,82.11c0.23,0.04 0.36,0.13 0.5,0.39l0.09,0.23l0.13,-0.05l-0.94,-1.91l-0.22,0.04l0.18,0.14c0.04,0.22 0.13,0.44 0.04,0.58c-0.04,0.13 -0.27,0.26 -0.58,0.49l-3.17,1.56l2.41,-5.45l-0.76,-1.43l-0.13,0c0.13,0.23 0.13,0.27 0.13,0.45c0.05,0.13 0.05,0.31 0,0.4c0,0.14 0,0.27 -0.13,0.58l-3.85,1.92c-0.27,0.13 -0.49,0.18 -0.62,0.18c-0.23,0 -0.27,-0.14 -0.45,-0.31l-0.05,-0.22l-0.22,0.04l0.98,1.92l0.14,-0.05l-0.05,-0.22c-0.13,-0.22 -0.13,-0.44 -0.09,-0.58c0.09,-0.04 0.23,-0.22 0.59,-0.4l3.3,-1.7l-2.55,5.85l0.09,0.09l4.61,-2.33c0.36,-0.17 0.54,-0.21 0.62,-0.21z" fill="rgb(0,96,151)" id="svg_47"/>
   </g>
   <g id="svg_48" transform="matrix(1.14129,0,0,1.13636,-10.6626,5.77273)">
    <path d="m50.88,90.31l0.14,-0.03l-1.57,-1.89l-0.13,0.19c0.22,0.13 0.26,0.31 0.26,0.4l0,0.27c-0.04,0.17 -0.17,0.31 -0.4,0.45l-1.34,1.2c-0.22,-0.14 -0.44,-0.23 -0.58,-0.36c-0.22,-0.09 -0.36,-0.26 -0.58,-0.4c-0.18,-0.31 -0.31,-0.67 -0.4,-1.07c-0.09,-0.45 0,-0.94 0.22,-1.43c0.18,-0.45 0.54,-0.85 0.98,-1.29c0.59,-0.4 1.21,-0.72 1.84,-0.77c0.71,-0.08 1.34,0.14 1.83,0.77c0.36,0.44 0.5,0.93 0.5,1.43c-0.05,0.35 -0.23,0.71 -0.41,1.11l0.04,0.18l1.43,-1.38l-0.13,-0.14c-0.13,0.09 -0.22,0.14 -0.31,0.14c-0.05,0 -0.14,0 -0.14,-0.05c-0.04,-0.09 -0.13,-0.14 -0.13,-0.36c-0.13,-0.26 -0.27,-0.49 -0.35,-0.71c-0.05,-0.13 -0.23,-0.36 -0.37,-0.49c-0.35,-0.5 -0.84,-0.8 -1.25,-0.98c-0.62,-0.18 -1.2,-0.22 -1.92,-0.09c-0.49,0.13 -0.98,0.36 -1.43,0.71c-0.54,0.49 -0.9,1.07 -1.03,1.78c-0.22,0.99 0.05,1.92 0.85,2.81c0.27,0.32 0.54,0.59 0.85,0.81c0.27,0.13 0.63,0.36 0.89,0.49l1.48,-1.2c0.22,-0.22 0.45,-0.36 0.58,-0.36c0.14,-0.09 0.36,0.09 0.49,0.23l0.09,0.03z" fill="rgb(0,96,151)" id="svg_49"/>
   </g>
   <g id="svg_50" transform="matrix(1.14129,0,0,1.13636,-10.6626,5.77273)">
    <path d="m56.11,91.25c0.18,-0.08 0.36,0 0.54,0.14l0.22,0.14l0.09,-0.14l-2.06,-1.6l-0.08,0.12l0.13,0.14c0.18,0.09 0.22,0.23 0.31,0.36l0,0.26c0,0.09 -0.13,0.23 -0.36,0.5l-2.63,3.26c-0.14,0.22 -0.27,0.31 -0.4,0.31c-0.14,0.04 -0.22,0.04 -0.27,0c-0.09,-0.09 -0.09,-0.22 0,-0.36c0.05,-0.26 0.05,-0.49 0.05,-0.58c0,-0.13 -0.05,-0.13 -0.14,-0.22c-0.09,-0.13 -0.23,-0.13 -0.36,-0.13c-0.13,0 -0.22,0.08 -0.27,0.22c-0.13,0.13 -0.22,0.27 -0.13,0.49c0,0.22 0.18,0.45 0.4,0.58c0.22,0.22 0.58,0.36 0.85,0.36c0.36,0 0.63,-0.14 0.85,-0.32c0.27,-0.13 0.58,-0.35 0.85,-0.75l1.92,-2.28c0.18,-0.36 0.36,-0.5 0.49,-0.5z" fill="rgb(0,96,151)" id="svg_51"/>
   </g>
   <g id="svg_52" transform="matrix(1.14129,0,0,1.13636,-10.6626,5.77273)">
    <path d="m58.21,92.38l0.23,0.17c0.13,0.05 0.22,0.14 0.26,0.27c0.09,0.09 0.09,0.22 0.09,0.27c0,0.08 -0.13,0.31 -0.22,0.58l-2.06,3.39c-0.13,0.32 -0.26,0.49 -0.4,0.58c-0.13,0.09 -0.35,0 -0.58,-0.09l-0.22,-0.13l-0.05,0.13l2.24,1.39l0.09,-0.23l-0.14,-0.09c-0.13,-0.04 -0.22,-0.18 -0.35,-0.26c-0.09,-0.14 -0.09,-0.23 -0.09,-0.27c0,-0.18 0.13,-0.31 0.31,-0.59l1.97,-3.38c0.22,-0.32 0.35,-0.54 0.4,-0.59c0.22,-0.08 0.44,0 0.67,0.14l0.13,0.08l0.05,-0.17l-2.19,-1.25l-0.14,0.05z" fill="rgb(0,96,151)" id="svg_53"/>
   </g>
   <g id="svg_54" transform="matrix(1.14129,0,0,1.13636,-10.6626,5.77273)">
    <path d="m69.75,97.15l0.22,0.04c0.27,0.09 0.4,0.19 0.49,0.36c0.04,0.09 0.04,0.36 -0.09,0.72l-0.58,2.41c-0.13,0.66 -0.36,1.06 -0.49,1.38c-0.18,0.18 -0.4,0.36 -0.76,0.4c-0.45,0.14 -0.71,0.14 -1.12,0c-0.36,-0.04 -0.58,-0.13 -0.71,-0.35c-0.23,-0.14 -0.36,-0.27 -0.45,-0.49c-0.04,-0.23 -0.04,-0.41 0,-0.76c0,-0.32 0,-0.58 0.09,-0.81l0.71,-2.63c0.05,-0.36 0.14,-0.5 0.27,-0.63c0.09,-0.09 0.27,-0.13 0.5,-0.09l0.26,0.09l0,-0.13l-2.5,-0.67l-0.09,0.18l0.27,0.04c0.22,0.1 0.36,0.14 0.45,0.31c0.04,0.14 0.04,0.36 0,0.67l-0.63,2.37c-0.18,0.72 -0.23,1.21 -0.23,1.47c0.05,0.45 0.23,0.81 0.5,1.08c0.27,0.35 0.76,0.58 1.38,0.8c0.59,0.13 1.17,0.13 1.52,0c0.4,-0.22 0.67,-0.45 0.9,-0.71c0.22,-0.32 0.36,-0.81 0.49,-1.34l0.63,-2.42c0.08,-0.35 0.17,-0.58 0.22,-0.66c0.22,-0.14 0.45,-0.23 0.62,-0.14l0.23,0.09l0.09,-0.18l-2.15,-0.54l-0.04,0.14z" fill="rgb(0,96,151)" id="svg_55"/>
   </g>
   <g id="svg_56" transform="matrix(1.14129,0,0,1.13636,-10.6626,5.77273)">
    <path d="m77.44,97.86l0.22,0c0.27,0 0.4,0.05 0.49,0.23c0.05,0.04 0.14,0.35 0.14,0.66l-0.14,3.58l-3.53,-4.78l-1.7,-0.05l0,0.23c0.22,0 0.36,0 0.4,0.05c0.18,0.08 0.32,0.08 0.36,0.13c0.13,0.09 0.23,0.22 0.45,0.53l-0.14,4.16c0,0.35 -0.08,0.58 -0.18,0.71c-0.13,0.14 -0.26,0.23 -0.53,0.23l-0.23,0l0,0.13l2.1,0.08l0,-0.12l-0.17,0c-0.23,0 -0.45,-0.18 -0.5,-0.23c-0.08,-0.13 -0.17,-0.36 -0.08,-0.8l0.08,-3.66l3.9,5.04l0.13,0l0.13,-5.23c0,-0.31 0.05,-0.53 0.14,-0.62c0.13,-0.13 0.26,-0.22 0.57,-0.22l0.19,0l0,-0.13l-2.1,-0.14l0,0.22z" fill="rgb(0,96,151)" id="svg_57"/>
   </g>
   <g id="svg_58" transform="matrix(1.14129,0,0,1.13636,-10.6626,5.77273)">
    <path d="m83.92,102.91c-0.14,-0.09 -0.18,-0.09 -0.27,-0.13c0,-0.18 -0.05,-0.36 -0.13,-0.67l-0.72,-3.89c-0.13,-0.36 -0.13,-0.58 -0.04,-0.72c0.13,-0.12 0.27,-0.22 0.49,-0.31l0.18,-0.04l0,-0.14l-2.6,0.49l0.05,0.14l0.67,0c0.04,0.09 0.13,0.09 0.18,0.14c0.09,0.08 0.09,0.35 0.18,0.66l0.76,3.89c0.09,0.36 0.09,0.58 0,0.71c0,0.14 -0.23,0.23 -0.5,0.27l-0.13,0.09l0,0.14l2.55,-0.5l0,-0.13l-0.67,0z" fill="rgb(0,96,151)" id="svg_59"/>
   </g>
   <g id="svg_60" transform="matrix(1.14129,0,0,1.13636,-10.6626,5.77273)">
    <path d="m89.51,95.23l0.09,0.23l0.04,-0.09c0.22,0 0.36,0 0.53,0.09c0.05,0 0.14,0.04 0.14,0.13c0.05,0.13 0.05,0.4 0.05,0.76l-0.19,3.84l-2.63,-2.91c-0.27,-0.27 -0.4,-0.4 -0.4,-0.58c-0.09,-0.13 -0.09,-0.18 0,-0.26c0.04,-0.13 0.17,-0.23 0.49,-0.36l-0.09,-0.14l-2.33,0.85l0,0.13c0.23,-0.04 0.36,-0.04 0.49,-0.04c0.1,0 0.23,0.04 0.36,0.04c0,0.09 0.14,0.14 0.36,0.46l3.89,4.24l0.13,-0.09l0.36,-5.59c0,-0.35 0.05,-0.57 0.14,-0.8c0.13,-0.13 0.22,-0.27 0.4,-0.36l-0.04,-0.13l-1.79,0.58z" fill="rgb(0,96,151)" id="svg_61"/>
   </g>
   <g id="svg_62" transform="matrix(1.14129,0,0,1.13636,-10.6626,5.77273)">
    <path d="m98.98,95.1c0.1,0.4 0,0.76 0,0.98c-0.04,0.23 -0.13,0.44 -0.22,0.49c-0.13,0.13 -0.27,0.31 -0.63,0.49l-0.85,0.58c-0.13,0.09 -0.22,0.09 -0.35,0.09c-0.05,0.05 -0.05,0 -0.14,0c-0.04,-0.09 -0.13,-0.18 -0.27,-0.45l-1.11,-1.6l1.11,-0.81c0.23,-0.13 0.36,-0.22 0.54,-0.22c0.09,0 0.22,0 0.36,0.09c0.09,0 0.22,0.22 0.44,0.4l0.05,-0.13l-1.12,-1.79l-0.13,0.18c0.22,0.27 0.22,0.49 0.22,0.72c-0.09,0.13 -0.22,0.31 -0.49,0.53l-1.16,0.72l-1.34,-2.06l1.43,-0.93c0.26,-0.15 0.4,-0.27 0.58,-0.27c0.13,-0.09 0.27,0 0.4,0.09c0.13,0.03 0.36,0.13 0.58,0.4l0.13,-0.05l-0.8,-1.16l-3.93,2.55l0.09,0.22l0.18,-0.13c0.13,-0.14 0.35,-0.23 0.49,-0.14c0.18,0 0.31,0.23 0.49,0.54l2.19,3.3c0.18,0.27 0.31,0.4 0.31,0.54c0,0.09 0,0.17 -0.09,0.31c-0.04,0.13 -0.13,0.17 -0.27,0.27l-0.13,0.13l0.04,0.13l3.98,-2.54l-0.44,-1.61l-0.14,0.14z" fill="rgb(0,96,151)" id="svg_63"/>
   </g>
   <g id="svg_64" transform="matrix(1.14129,0,0,1.13636,-10.6626,5.77273)">
    <path d="m100.81,87.78l0,0.61l-0.04,0c-0.22,0 -0.35,0.1 -0.58,0.23c-0.09,0.09 -0.13,0.14 -0.22,0.23c-0.14,0.04 -0.27,0.26 -0.41,0.49l1.25,1.42l0,1.26l-1.47,-1.57c-0.26,-0.26 -0.49,-0.49 -0.58,-0.49c-0.18,0 -0.36,0.09 -0.54,0.23l-0.13,0.22l-0.18,-0.13l1.65,-1.57c0.5,-0.44 0.86,-0.71 1.12,-0.85c0.09,-0.08 0.13,-0.08 0.13,-0.08zm4.88,2.89c-0.18,0.09 -0.63,0.09 -1.03,-0.04l-2.19,-0.35c0.31,-0.45 0.49,-0.86 0.49,-1.21c-0.09,-0.45 -0.22,-0.71 -0.49,-1.03c-0.22,-0.18 -0.49,-0.4 -0.85,-0.4l-0.23,0c-0.13,0 -0.35,0 -0.49,0.05l-0.09,0.09l0,0.61l0.09,0c0.36,0 0.63,0.19 0.9,0.46c0.31,0.26 0.36,0.57 0.36,0.98c-0.05,0.36 -0.27,0.8 -0.72,1.2c0,0 -0.05,0 -0.05,0.09c0,0 -0.08,0.05 -0.13,0.05l-0.45,-0.41l0,1.26l1.3,1.29c0.18,0.22 0.36,0.44 0.36,0.49c0.05,0.23 0,0.45 -0.22,0.63l-0.14,0.18l0.05,0.13l1.92,-1.92l-0.09,-0.09l-0.18,0.18c-0.18,0.18 -0.31,0.18 -0.49,0.18c-0.18,0 -0.36,-0.14 -0.58,-0.4l-1.3,-1.3c0.09,0 0.09,-0.05 0.18,-0.05c0,-0.09 0.04,-0.09 0.04,-0.09c0.09,-0.08 0.14,-0.22 0.32,-0.27l3.44,0.55l1.21,-1.08l-0.14,-0.14c-0.31,0.23 -0.58,0.36 -0.8,0.36z" fill="rgb(0,96,151)" id="svg_65"/>
   </g>
   <g id="svg_66" transform="matrix(1.14129,0,0,1.13636,-10.6626,5.77273)">
    <path d="m109.35,84.03c-0.18,-0.14 -0.4,-0.23 -0.62,-0.23c-0.27,-0.09 -0.49,0 -0.76,0.09c-0.27,0 -0.72,0.18 -1.3,0.49c-0.67,0.36 -1.16,0.54 -1.47,0.54c-0.23,0.09 -0.36,0 -0.54,-0.04c-0.18,-0.23 -0.31,-0.36 -0.36,-0.63c0,-0.32 0.05,-0.59 0.18,-0.9c0.18,-0.17 0.36,-0.31 0.67,-0.49c0.27,-0.13 0.54,-0.18 0.85,-0.13c0.27,0 0.54,0.09 0.89,0.31l0.14,-0.18l-1.75,-1.2l-0.08,0.13c0.08,0.09 0.13,0.23 0.13,0.23l0,0.22c-0.05,0.08 -0.18,0.13 -0.36,0.26c-0.31,0.23 -0.53,0.45 -0.76,0.72c-0.26,0.36 -0.4,0.85 -0.36,1.3c0.1,0.49 0.32,0.85 0.63,1.11c0.22,0.09 0.45,0.23 0.67,0.23c0.27,0.09 0.49,0 0.76,-0.05c0.27,-0.09 0.72,-0.31 1.25,-0.53c0.54,-0.27 0.85,-0.4 1.03,-0.5c0.18,-0.04 0.4,-0.04 0.54,-0.04c0.22,0 0.31,0.04 0.44,0.18c0.27,0.18 0.41,0.36 0.41,0.66c0,0.28 -0.05,0.63 -0.27,0.9c-0.22,0.31 -0.45,0.45 -0.72,0.58c-0.26,0.13 -0.49,0.22 -0.76,0.22c-0.31,0 -0.58,-0.13 -0.98,-0.26l-0.09,0.04l1.7,1.3l0.09,-0.14c-0.09,-0.18 -0.18,-0.22 -0.18,-0.31c0,-0.05 0,-0.05 0.09,-0.13c0,-0.09 0.13,-0.23 0.4,-0.45c0.23,-0.14 0.45,-0.27 0.45,-0.31c0.13,-0.18 0.27,-0.23 0.36,-0.45c0.35,-0.44 0.4,-0.94 0.4,-1.43c-0.13,-0.49 -0.36,-0.85 -0.72,-1.11z" fill="rgb(0,96,151)" id="svg_67"/>
   </g>
   <g id="svg_68" transform="matrix(1.14129,0,0,1.13636,-10.6626,5.77273)">
    <path d="m113.07,80.05c-0.1,0.13 -0.14,0.18 -0.32,0.26c-0.04,0.1 -0.13,0.1 -0.27,0.1c-0.09,0 -0.26,-0.1 -0.49,-0.23l-3.53,-1.78c-0.36,-0.23 -0.58,-0.36 -0.63,-0.41c-0.09,-0.21 -0.09,-0.35 0.05,-0.57l0.09,-0.23l-0.14,-0.04l-1.16,2.32l0.18,0.09l0.04,-0.23c0.1,-0.13 0.14,-0.22 0.27,-0.3c0.09,-0.05 0.23,-0.14 0.32,-0.14c0.04,0.09 0.26,0.14 0.53,0.31l3.54,1.75c0.35,0.17 0.53,0.3 0.58,0.44c0.09,0.14 0.09,0.36 -0.05,0.58l-0.09,0.18l0.14,0.09l1.2,-2.32l-0.13,-0.1l-0.13,0.23z" fill="rgb(0,96,151)" id="svg_69"/>
   </g>
   <g id="svg_70" transform="matrix(1.14129,0,0,1.13636,-10.6626,5.77273)">
    <path d="m115.17,73.71c-0.05,0.23 -0.14,0.36 -0.27,0.45c-0.14,0.04 -0.36,0.04 -0.72,-0.09l-4.51,-1.21l0.22,-0.85c0.05,-0.22 0.13,-0.4 0.27,-0.58c0.13,-0.04 0.27,-0.17 0.49,-0.17c0.09,-0.09 0.27,-0.09 0.49,0l0.09,-0.18l-1.34,-0.36l-1.34,4.91l1.34,0.45l0.05,-0.22c-0.27,-0.1 -0.41,-0.23 -0.59,-0.36c-0.13,-0.14 -0.18,-0.27 -0.18,-0.45c0,-0.13 0,-0.36 0.05,-0.62l0.22,-0.72l4.52,1.21c0.35,0.09 0.49,0.22 0.62,0.31c0.09,0.13 0.09,0.35 0,0.53l0,0.23l0.18,0.09l0.63,-2.59l-0.13,0l-0.09,0.22z" fill="rgb(0,96,151)" id="svg_71"/>
   </g>
   <g id="svg_72" transform="matrix(1.14129,0,0,1.13636,-10.6626,5.77273)">
    <path d="m116.59,65.18l-0.08,0.23c0,0.22 -0.05,0.44 -0.23,0.49c-0.04,0.08 -0.35,0.18 -0.67,0.08l-1.56,-0.08l-2.19,-1.61c-0.31,-0.22 -0.49,-0.44 -0.58,-0.58c-0.14,-0.09 -0.23,-0.22 -0.27,-0.45c-0.09,-0.13 -0.09,-0.17 -0.09,-0.31l0,-0.09l-0.18,0l-0.18,2.15l0.22,0c0,-0.18 0,-0.32 0.09,-0.37c0.05,-0.09 0.05,-0.13 0.14,-0.13c0.04,-0.09 0.13,-0.09 0.22,-0.09c0.18,0 0.32,0.13 0.63,0.27l1.83,1.39l-2.06,1.11c-0.35,0.14 -0.49,0.27 -0.62,0.27c-0.14,-0.04 -0.23,-0.13 -0.27,-0.27c-0.09,-0.09 -0.09,-0.22 -0.09,-0.35l0,-0.14l-0.14,0l-0.22,2.64l0.14,0c0,-0.18 0.08,-0.23 0.08,-0.31c0.14,-0.19 0.23,-0.36 0.36,-0.41c0.05,-0.09 0.27,-0.14 0.54,-0.35l2.68,-1.52l1.44,0.18c0.35,0 0.58,0 0.62,0.13c0.22,0.04 0.31,0.27 0.22,0.54l0,0.22l0.14,0l0.22,-2.64l-0.14,0z" fill="rgb(0,96,151)" id="svg_73"/>
   </g>
  </g>
  <rect fill="#FF0000" height="11" id="svg_75" opacity="0.5" stroke="#000000" stroke-width="5" width="0" x="137" y="129.33"/>
 </g>
</svg>